<svg id="fb710df7-0230-4e0d-8742-b5e6ddf3f86d" data-name="Layer 1" xmlns="http://www.w3.org/2000/svg" viewBox="0 0 72 72"><defs><style>.b6c5dcae-9bca-4aa7-90b6-f80356eb857a{fill:none;stroke:#000;stroke-linejoin:round;stroke-width:2px;fill-rule:evenodd;}</style></defs><path class="b6c5dcae-9bca-4aa7-90b6-f80356eb857a" d="M35.99774,1.86428A35.00333,35.00333,0,0,0,24.93688,70.07554c1.75006.321,2.38883-.75954,2.38883-1.68709,0-.83087-.0303-3.03192-.04727-5.95274C17.54263,64.5508,15.48835,57.744,15.48835,57.744c-1.5915-4.04327-3.886-5.11973-3.886-5.11973-3.17781-2.1716.24043-2.12756.24043-2.12756,3.51235.24752,5.361,3.60689,5.361,3.60689,3.12215,5.34855,8.1916,3.80412,10.18595,2.90815a7.4783,7.4783,0,0,1,2.22209-4.679c-7.772-.8833-15.94251-3.886-15.94251-17.29808A13.52878,13.52878,0,0,1,17.2719,25.6428a12.58868,12.58868,0,0,1,.34314-9.26269s2.93866-.94109,9.62472,3.588a33.17461,33.17461,0,0,1,17.52455,0c6.682-4.52907,9.61527-3.588,9.61527-3.588a12.57119,12.57119,0,0,1,.34829,9.26269,13.5058,13.5058,0,0,1,3.59764,9.39182c0,13.44561-8.18322,16.40425-15.98033,17.27079,1.25673,1.08054,2.37615,3.21669,2.37615,6.48151,0,4.679-.043,8.45395-.043,9.60153,0,.93593.63041,2.02485,2.40667,1.683A35.00521,35.00521,0,0,0,35.99774,1.86428Z"/></svg>