<svg id="f9880311-e93b-49f4-99e7-d07f73c446b3" data-name="Layer 1" xmlns="http://www.w3.org/2000/svg" viewBox="0 0 72 72"><defs><style>.b52895e4-18fd-4390-bb86-a310a59dffb7{fill:none;stroke:#000;stroke-linejoin:round;stroke-width:2px;}</style></defs><rect class="b52895e4-18fd-4390-bb86-a310a59dffb7" x="1" y="15" width="70" height="42" rx="3.24681" transform="translate(72 72) rotate(180)"/><rect class="b52895e4-18fd-4390-bb86-a310a59dffb7" x="1" y="15" width="70" height="42" rx="3.24681" transform="translate(72 72) rotate(180)"/><rect class="b52895e4-18fd-4390-bb86-a310a59dffb7" x="1" y="15" width="70" height="42" rx="3.24681" transform="translate(72 72) rotate(180)"/><rect class="b52895e4-18fd-4390-bb86-a310a59dffb7" x="1" y="15" width="70" height="42" rx="3.24681" transform="translate(72 72) rotate(180)"/><rect class="b52895e4-18fd-4390-bb86-a310a59dffb7" x="1" y="15" width="70" height="42" rx="3.24681" transform="translate(72 72) rotate(180)"/><path class="b52895e4-18fd-4390-bb86-a310a59dffb7" d="M40.99945,39.8429l29.37378-23.499A3.23457,3.23457,0,0,0,67.75317,15H4.24683a3.23457,3.23457,0,0,0-2.62006,1.34387l29.37378,23.499A8.003,8.003,0,0,0,40.99945,39.8429Z"/></svg>