<svg id="ecce0a2f-53ea-4319-b6b5-c5b9a0f449d0" data-name="Layer 1" xmlns="http://www.w3.org/2000/svg" viewBox="0 0 72 72"><defs><style>.b7a6ce20-1c4b-4fde-b56e-b029f95c97be{fill:none;stroke:#000;stroke-miterlimit:10;stroke-width:2px;}</style></defs><path class="b7a6ce20-1c4b-4fde-b56e-b029f95c97be" d="M15.70687,45.2444a7.35344,7.35344,0,1,1-7.3536-7.35327h7.3536Z"/><path class="b7a6ce20-1c4b-4fde-b56e-b029f95c97be" d="M19.41211,45.2444a7.35343,7.35343,0,0,1,14.70681-.03966q.00006.01983,0,.03966V63.65646a7.35344,7.35344,0,0,1-14.70687,0Z"/><path class="b7a6ce20-1c4b-4fde-b56e-b029f95c97be" d="M26.76548,15.71675a7.35344,7.35344,0,1,1,7.35328-7.35359v7.35359Z"/><path class="b7a6ce20-1c4b-4fde-b56e-b029f95c97be" d="M26.76548,19.422a7.35343,7.35343,0,1,1,.03966,14.70681q-.01983.00006-.03966,0H8.35349a7.35343,7.35343,0,1,1,0-14.70686Z"/><path class="b7a6ce20-1c4b-4fde-b56e-b029f95c97be" d="M56.29313,26.77537a7.35344,7.35344,0,1,1,7.3536,7.35327h-7.3536Z"/><path class="b7a6ce20-1c4b-4fde-b56e-b029f95c97be" d="M52.588,26.77537a7.35343,7.35343,0,0,1-14.70681.03966q-.00006-.01983,0-.03966V8.36337A7.35343,7.35343,0,0,1,52.588,8.32371q.00006.01983,0,.03966Z"/><path class="b7a6ce20-1c4b-4fde-b56e-b029f95c97be" d="M45.23452,56.303a7.35343,7.35343,0,1,1-7.35327,7.3536V56.303Z"/><path class="b7a6ce20-1c4b-4fde-b56e-b029f95c97be" d="M45.23452,52.59784A7.35344,7.35344,0,1,1,45.19486,37.891q.01983-.00006.03966,0h18.412a7.35344,7.35344,0,0,1,0,14.70682Z"/></svg>