<svg id="bd535734-666e-46f4-a578-14ad4cd6a933" data-name="Layer 1" xmlns="http://www.w3.org/2000/svg" viewBox="0 0 72 72"><defs><style>.abe2eda0-a4bd-43c5-a556-b2c7798b5ce7{fill:none;stroke:#000;stroke-linejoin:round;stroke-width:2px;}</style></defs><path class="abe2eda0-a4bd-43c5-a556-b2c7798b5ce7" d="M66.27387,7.03237,4.26808,30.94152C.03569,32.63934.0609,35.00068,3.49671,36.05262l15.9098,4.96609.00229.00072L56.24694,17.77866c1.7391-1.05463,3.33552-.48817,2.02555.67482L28.42443,45.38888l-.00046.00039-.00013.00164,7.27,5.37119,2.58516,1.91L54.36463,64.55628c2.96054,1.63344,5.09659.78748,5.83418-2.74812L70.7584,12.04744C71.83932,7.71309,69.1062,5.74657,66.27387,7.03237Z"/><path class="abe2eda0-a4bd-43c5-a556-b2c7798b5ce7" d="M28.42292,45.39022l.001-.00095,0-.00066.00043.00027,29.84806-26.9354c1.31-1.163-.28645-1.72945-2.02555-.67482L19.4088,41.01943l-.00229-.00072,5.47171,18.00755c.71935,1.98583.36476,2.77332,2.4504,2.77332l1.09522-16.40867Z"/><polygon class="abe2eda0-a4bd-43c5-a556-b2c7798b5ce7" points="28.424 45.389 28.424 45.389 28.424 45.389 28.424 45.389"/><path class="abe2eda0-a4bd-43c5-a556-b2c7798b5ce7" d="M35.69388,50.7621l-7.27-5.37119L27.32862,61.79958a4.12444,4.12444,0,0,0,3.21857-1.60928L38.279,52.67205Z"/><polygon class="abe2eda0-a4bd-43c5-a556-b2c7798b5ce7" points="28.423 45.39 28.424 45.391 28.424 45.389 28.423 45.39"/><polygon class="abe2eda0-a4bd-43c5-a556-b2c7798b5ce7" points="28.423 45.39 28.424 45.391 28.424 45.389 28.423 45.39"/></svg>