<svg id="b20aa6a0-13cd-41b5-961d-65395ffe5764" data-name="Layer 1" xmlns="http://www.w3.org/2000/svg" viewBox="0 0 72 72"><defs><style>.bb6685dd-7386-4825-8be1-289299e32020{fill:none;stroke:#000;stroke-linejoin:round;stroke-width:2px;}</style></defs><g id="b3fb77c6-5803-40a9-83fc-32ce21f75426" data-name="layer1"><path id="e7ce1aaa-b8c4-479d-bbfa-e31d644036b0" data-name="path3611" class="bb6685dd-7386-4825-8be1-289299e32020" d="M23.01449,64.44477c26.41686,0,40.86219-21.885,40.86219-40.86219q0-.93241-.04055-1.85642A29.20344,29.20344,0,0,0,71,14.28928a28.63653,28.63653,0,0,1-8.24748,2.261A14.412,14.412,0,0,0,69.068,8.60663a28.80152,28.80152,0,0,1-9.11969,3.486A14.374,14.374,0,0,0,35.47465,25.18979,40.77624,40.77624,0,0,1,5.87136,10.18445,14.37423,14.37423,0,0,0,10.3178,29.35763a14.25611,14.25611,0,0,1-6.50446-1.79622c-.0021.06025-.0021.119-.0021.1834a14.36582,14.36582,0,0,0,11.5221,14.07852,14.338,14.338,0,0,1-6.48625.2464,14.37649,14.37649,0,0,0,13.41632,9.9751A28.81119,28.81119,0,0,1,4.42584,58.19229,29.1713,29.1713,0,0,1,1,57.99349a40.65382,40.65382,0,0,0,22.01521,6.45127"/></g></svg>