<?xml version="1.0" ?><!DOCTYPE svg  PUBLIC '-//W3C//DTD SVG 1.1//EN'  'http://www.w3.org/Graphics/SVG/1.1/DTD/svg11.dtd'><svg enable-background="new 0 0 24 24" height="24px" id="Layer_1" version="1.1" viewBox="0 0 24 24" width="24px" xml:space="preserve" xmlns="http://www.w3.org/2000/svg" xmlns:xlink="http://www.w3.org/1999/xlink"><g><path d="M10,0H1C0.4,0,0,0.4,0,1v7c0,0.6,0.4,1,1,1h3v1H3.5C3.2,10,3,10.2,3,10.5S3.2,11,3.5,11h4C7.8,11,8,10.8,8,10.5   S7.8,10,7.5,10H7V9h3c0.6,0,1-0.4,1-1V1C11,0.4,10.6,0,10,0z M6,10H5V9h1V10z M9,7H2V2h7V7z"/><path d="M23,13h-9c-0.6,0-1,0.4-1,1v7c0,0.6,0.4,1,1,1h3v1h-0.5c-0.3,0-0.5,0.2-0.5,0.5s0.2,0.5,0.5,0.5h4c0.3,0,0.5-0.2,0.5-0.5   S20.8,23,20.5,23H20v-1h3c0.6,0,1-0.4,1-1v-7C24,13.4,23.6,13,23,13z M19,23h-1v-1h1V23z M22,20h-7v-5h7V20z"/><path d="M18,6.9V12h1V6.9c0.6-0.2,1-0.8,1-1.4C20,4.7,19.3,4,18.5,4c-0.7,0-1.2,0.4-1.4,1H12v1h5.1C17.2,6.4,17.6,6.8,18,6.9z    M18.5,5C18.8,5,19,5.2,19,5.5S18.8,6,18.5,6S18,5.8,18,5.5S18.2,5,18.5,5z"/></g></svg>