<svg id="b0fe9f0f-2260-4388-9a96-9bddc071a125" data-name="Layer 1" xmlns="http://www.w3.org/2000/svg" viewBox="0 0 850 640"><path d="M297.7287,479.0963c-10.815,4.3333-24.5146-6.4974-35.33,0-4.3221,0-6.4832,0-10.815-2.1691-7.2068-.72-11.5387-.72-18.0218,1.4445-2.161,0-8.654-4.3284-11.5386-4.3284-12.9761,2.1642-24.5147,6.4975-37.4907,2.1642-6.4929,0-13.7-4.3333-8.654-13.72,4.3319-8.6666,15.1469-10.8308,24.5147-15.1641,0-2.1642,4.3319-6.4974,2.161-10.8307-10.815-15.8838-24.5146-25.27-30.9978-42.5984h-4.3318c-10.815-7.2221-17.2982-15.8886-26.6757-29.6083-4.3221-6.4974-17.2982-15.8837-22.3537,0-2.161,13,2.1709,26.7195-2.161,42.6033-2.161,10.8307,2.161,19.4973,2.161,31.0478,0,4.3333,4.3319,6.4975,6.493,8.6666,6.4929,2.1642,8.6539,7.2172,12.976,11.5505,4.3319,4.3333,2.161,17.3331-2.161,17.3331-35.33,4.3284-69.2219,4.3284-104.5418,4.3284-4.3319,0-6.4929,4.3333-11.5386,4.3333-6.4929,0-4.3319-7.2222-8.654-7.2222,2.1611-2.1642,4.3221-4.3283,0-8.6616,2.1611,0,4.3221-2.1691,4.3221-2.1691-2.161-8.6617,5.0555-11.55,9.3776-15.8838,8.6539-6.4975,22.3536-4.3333,26.6757-12.995,9.3775-15.164,11.5386-33.2169,9.3775-51.27,0-2.1641-2.1708-2.1641-2.1708-4.3283,6.4929-10.8308-2.161-24.55,0-35.3811,9.3776-28.8837,5.0555-55.5982,5.0555-83.0374-2.1708-4.3333-2.1708-8.6666-2.1708-13,5.0457-40.4341,2.8846-80.1485,3.6082-120.5827V107.2324c-2.161-4.3284,0-10.8308,0-17.3282-2.161-7.2173-6.4929-15.8838-12.976-20.2171-12.2622-7.9419-26.6757-7.2221-40.3754-11.55-4.3319,0-2.1708-6.5024-6.4929-6.5024,2.161-2.1642,4.3221-4.3284,0-9.3863,4.3221-2.1642,6.4929-6.4975,11.5386-8.6617,17.2982-6.5024,33.1686-10.8307,51.19-19.4973h6.4929C87.9216,3.2582,105.22,5.4223,121.08,5.4223c0,4.3333,2.1708,6.5024,4.3319,8.6666,4.3221,15.8838-4.3319,31.7725-2.1611,46.9316,5.76,42.6033-.7236,82.3176.7138,124.9209,4.3319,24.5454-8.6539,49.0958-2.161,75.8152,2.161,10.8308-.7236,24.55,5.7693,33.2121,11.5386,11.5554,19.469-8.6617,27.3993-15.1592,2.1611,0,4.3221,0,6.4832-2.1691.7236-2.1642,1.4472-6.4974,2.1708-8.6665,7.93-9.3863,13.7-18.048,18.0217-28.8788,4.3221-9.3863,10.0914-18.0528,4.3221-24.55-5.76-2.1691-9.3678-7.2221-15.8607-11.5554-3.5985-4.3333-1.4374-15.8838,5.7693-18.048,25.2383-6.5024,49.0293.72,73.544-1.4444,9.3776-2.1691,18.7454-6.5024,29.56-4.3333,6.4929,2.1642,12.976,2.1642,14.4232,9.3863-.7236,2.1642-3.6082,4.3333-5.7693,6.4975-31.7214,15.164-65.6136,22.3861-85.0826,59.2117,0,0-2.8846,2.8839-5.0457,3.6086-2.161,2.8888-2.161,5.053-2.8846,7.9419-6.4832,1.4444-7.2068,8.6665-12.2525,12.2752-2.161,0-3.6082.7246-6.4929,3.6086-20.9064,18.7775-7.93,21.6615.7236,35.3811,0,2.1691,0,4.3333,2.1611,6.5024,2.161,2.1641,4.3221,2.1641,6.4929,2.1641,9.3678,11.5506,18.0217,22.3813,28.8367,33.9367,2.1611,2.1642,2.1611,8.6666,4.3221,10.8308,9.3776,4.3333,11.5386,13.72,15.87,20.2171,2.1611,2.169,6.4831,4.3332,8.6442,6.4974,8.654,22.3862,33.1686,33.9367,46.1447,51.99,9.3775-2.1642,13.7,6.4975,18.0315,13.72C311.4284,470.43,302.7744,476.9272,297.7287,479.0963Z"/><path d="M303.8175,352.369c-8.6539-.7247-18.0315-4.3333-22.3536-10.8308-2.161-7.2221-6.4929-11.5554-8.6539-15.8838-2.1611-11.5554-4.3221-20.222,2.161-28.8836,0-2.1691,5.0457-6.4975,7.2165-11.5554,4.3221-8.6617,12.9761-6.4975,20.1828-10.8308,6.4929-2.1642,10.815,2.1691,17.3079,5.058h9.3678c12.9858,10.8307,23.8009,24.5454,19.469,41.8785C341.3082,339.3691,324,354.5331,303.8175,352.369Z"/><path d="M578.2527,216.9892c-15.1469,11.5505-32.445,5.7728-47.5919,9.3863-5.0457,1.4445-12.976,1.4445-16.5745,5.0531-2.1708,4.3333-5.7693,5.7777-10.1012,9.3863-11.5386,20.9417-17.2981,43.323-26.6757,64.2647-7.93,10.8308-13.7,22.3813-19.469,33.9367a147.9806,147.9806,0,0,1-9.3677,22.3813v9.3912c-4.3319,11.5505-12.2623,20.9369-15.8607,31.7676v5.7777c12.976,11.5505,24.5146-5.053,33.8824-13,4.3221-3.6086,10.0914-10.8308,15.8607-14.4394a9.6927,9.6927,0,0,0,1.4472-5.7777c5.7693-7.9419,19.4592-20.9368,26.6757-9.3863,2.1611,7.9419,1.4375,15.164-2.161,23.1059-7.93,7.2221-9.3776,16.6085-13.7,25.9948-1.4472,3.6135-7.2165,3.6135-9.3775,7.2221-5.7693,11.5505-15.1371,20.9369-26.6757,28.159-2.1611,2.1691-2.1611,5.7777-3.6083,7.9419-5.7693,5.0579-11.5288,10.8307-19.469,14.4443-7.2067,3.6086-12.976,9.3863-20.9064,12.9949a64.3962,64.3962,0,0,1-16.5843,7.2221c-5.7693,2.1642-11.5288-1.4444-17.2981,0-5.0457,1.4445-9.3776,0-11.5386-2.1691-9.3776-16.6035-10.815-39.7094.7236-56.3179,2.161-2.1691,0-7.9419,0-9.3863,19.4592-43.323,41.0892-84.4818,56.236-129.9739,0-3.6087,2.1611-7.2173,2.1611-11.5506,7.93-13,13.7-25.9947,19.469-38.99,2.161-5.7777-3.6083-13.72-9.3776-13.72-12.9761-2.1691-28.1132,5.7728-37.4907-4.3333-3.5985-5.7777-3.5985-15.164,0-20.217,5.7693-5.7777,12.976-5.7777,20.9162-7.9419,5.76-1.4445,11.5288,4.3283,17.2981.72a5.5317,5.5317,0,0,0,3.6083,1.4445l1.4374-1.4445c9.3776,5.7777,19.469,0,25.2383-7.2221,1.4374-4.3284,1.4374-9.3863,3.6082-13.72,2.1611-3.6086,3.5985-9.3863,5.7693-12.995,7.93-7.2221,7.93-16.6084,13.69-25.9947,12.9858-17.3283,30.284-30.3281,53.3612-28.159,14.4233,11.5505,7.2067,30.3281-2.8847,43.323v4.3333c-7.2067,10.8307-20.9064,23.8257-7.93,35.3811,15.1371.72,30.284-2.8889,45.4211-1.4444C584.022,202.5449,584.022,213.3757,578.2527,216.9892Z"/><path d="M828.4157,357.0692c0,3.6086-5.7693,7.2172-7.2068,10.8308-6.4929,15.164-12.2622,30.3231-21.64,45.4872-2.1611,3.6135-7.93,9.3863-9.3678,14.4442-4.3221,9.3863-10.0914,17.3282-15.8607,26.7146-5.7693,7.2221-15.1469,9.3863-22.3536,14.4393-4.3221,2.1691-4.3221,5.7777-7.93,7.9419-12.976,7.2222-28.1229,10.8308-41.8226,14.4443-11.5288,3.6086-20.1828-7.9419-31.7214-13.72-9.3678-3.6086-16.5843-11.5554-20.1926-23.1059-2.161-13,0-24.55,9.3776-33.2169,2.1611-2.1642,3.6083-2.1642,5.7693-5.7729,7.93-7.9467,18.7454-5.7777,28.1229,0,7.93,5.7729,11.5289,17.3283,18.7454,25.27,7.93,3.6086,18.7454,3.6086,24.5147-5.7777,11.5288-24.55,27.3993-44.7675,33.1588-69.3178,3.6083-9.3864,7.93-17.3282,9.3776-26.7146,0-3.6086,0-7.2221.7236-9.3863,1.4374-3.6086,5.0457-5.7777,5.7693-9.3863,0-24.55,7.93-49.1007.7138-73.6511-3.5985-9.3863-9.3678-18.7726-18.7453-18.7726-9.3678,1.4444-15.1371,8.6616-23.0675,14.4393-3.6083,0-7.2165,2.1691-9.3776,3.6087-9.3677,9.3912-18.7453,16.6084-28.8367,25.9947-1.4472,2.1691-1.4472,5.7777-3.6083,7.9468-2.161,1.44-3.6082,1.44-5.7693,3.6086-7.93,12.995-18.7453,20.2171-28.8367,31.7676-7.2068,11.5554-11.5386,24.55-18.7454,35.3811-2.161,2.1691-5.7693,4.3333-7.93,5.7777-9.3776,15.1641-13.7,30.3281-26.6855,43.3231-4.3221,5.7777-4.3221,13-6.4832,18.7775-1.4472,3.6086-5.0457,5.7728-7.2067,9.3863-13.7,20.9369-15.87,62.0957-47.5919,56.318-6.4929-1.4445-11.5386-5.7777-11.5386-11.55,0-13,4.3319-26.72,10.1012-37.55v-7.9419c7.93-24.55,19.4592-44.7675,28.8367-69.3178v-9.3863c12.2525-36.1009,31.0076-65.7092,37.4907-101.81,7.2166-9.3863,7.2166-22.3862,13.7-33.9367,1.4472-3.6086,5.0457-7.2221,7.2067-11.5554,0-3.6086-1.4374-9.3863,0-12.9949,10.1012-20.9418,19.469-37.5453,25.2383-59.9315l4.3319-2.1642c0-11.5554,7.2067-18.7775,9.3678-30.328,0-3.6087,4.3318-9.3864,5.7693-12.995,4.3221-9.3912.7236-20.9417-9.3776-22.3861-18.7453-2.1642-35.33-4.3333-54.075-6.4975-3.5985-7.9419,0-13,7.2165-15.164,9.3678,0,17.2981-3.6087,26.6757-5.0531,26.6757-2.1691,51.19-5.0579,77.8661-8.6665,3.6082,0,7.2165-3.6087,10.815-3.6087,7.93,0,11.5386,7.2173,11.5386,12.995-2.161,9.3863-2.161,17.3282-5.7693,26.7145C744.78,77.629,733.2417,90.6288,725.3113,107.957v7.2222c-1.4472,5.7728-7.2067,11.5505-9.3775,17.3282-11.5289,39.7144-30.9978,75.0955-46.8585,112.6408-1.4472,9.3863-5.7693,17.3282-9.3776,26.7145-2.161,5.058-2.161,15.1641,7.2068,13,17.3079-7.2222,25.2382-24.55,36.0532-38.9946,4.3221-2.1642,7.93-3.6087,11.5386-5.7729,7.93-7.2221,11.5387-16.6084,20.9064-22.3861,10.0914-3.6086,17.308-7.2222,25.2383-12.995,15.1371-7.2221,31.7214-13,46.8683-7.2221a79.613,79.613,0,0,1,26.6757,20.9417c7.2067,10.1061,5.0457,23.106,10.815,32.4923C842.839,287.0268,839.9543,320.9634,828.4157,357.0692Z"/><path d="M41.7389,562.6124H47.246a.8056.8056,0,0,1,.7973.7994V583.08a6.0765,6.0765,0,0,1,4.928-2.3234h9.2045c5.7971,0,10.0724,3.3394,10.0724,10.1619V617.045H66.7411a.8046.8046,0,0,1-.7973-.7974V591.0623a4.24,4.24,0,0,0-4.2753-4.2806H51.5223a3.9549,3.9549,0,0,0-3.479,3.7V617.045H42.5361a.8038.8038,0,0,1-.7972-.7974Z"/><path d="M89.0655,565.2981V571.25H83.5574a.8062.8062,0,0,1-.7973-.7994v-5.95h5.5081A.8046.8046,0,0,1,89.0655,565.2981Zm0,16.185V617.045H83.5574a.8046.8046,0,0,1-.7973-.7974v-35.491h5.5081A.7464.7464,0,0,1,89.0655,581.4831Z"/><path d="M123.4894,614.1427a6.0926,6.0926,0,0,1-5.0009,2.9023h-8.6961c-6.74,0-10.1453-4.79-10.1453-10.5951v-15.46c0-5.8046,3.6954-10.3057,10.58-10.3057h17.2488a2.3378,2.3378,0,0,1,2.319,2.3234v41.15a10.6015,10.6015,0,0,1-10.5807,10.5971H101.9662v-5.2257a.8055.8055,0,0,1,.7963-.7994H119.214a4.2856,4.2856,0,0,0,4.2754-4.2806Zm-17.5379-7.4034c0,2.3215.9418,4.2826,3.9863,4.2826h10.0007a4.16,4.16,0,0,0,3.5509-3.7017V587.5063a.8046.8046,0,0,0-.7973-.7975H110.2269c-3.3336,0-4.2754,1.9592-4.2754,4.2806Z"/><path d="M140.3086,562.6124h5.5071a.8056.8056,0,0,1,.7973.7994V583.08a6.0765,6.0765,0,0,1,4.928-2.3234h9.2045c5.7971,0,10.0724,3.3394,10.0724,10.1619V617.045h-5.5071a.8046.8046,0,0,1-.7973-.7974V591.0623a4.24,4.24,0,0,0-4.2753-4.2806H150.092a3.9549,3.9549,0,0,0-3.479,3.7V617.045h-5.5072a.8038.8038,0,0,1-.7972-.7974Z"/><path d="M231.9172,617.045h-8.3334a6.2927,6.2927,0,0,1-4.9281-2.3214v19.2311a.8063.8063,0,0,1-.7973.7994H212.35v-51.747a2.2759,2.2759,0,0,1,2.3191-2.25h17.2478c5.7981,0,10.5807,3.048,10.5807,10.2328v15.8228C242.4979,612.9082,237.7153,617.045,231.9172,617.045Zm4.2763-26.0556c0-3.3374-1.9572-4.2806-4.2763-4.2806H219.453a.8039.8039,0,0,0-.7973.7975V607.32a4.0211,4.0211,0,0,0,3.4781,3.7017h9.7834a4.2881,4.2881,0,0,0,4.2763-4.2826Z"/><path d="M253.01,606.45V591.0623c0-6.75,4.7108-10.3057,10.5807-10.3057h9.7107c5.8708,0,10.5807,3.556,10.5807,10.3057v8.3465c0,1.2346-.1445,2.2506-1.8836,2.2506H262.1415a3.4629,3.4629,0,0,1-2.8263-1.38v6.46a4.2413,4.2413,0,0,0,4.2753,4.2826h17.9723a.8039.8039,0,0,1,.7973.7974v5.2257h-18.77A10.5547,10.5547,0,0,1,253.01,606.45Zm6.3054-15.46v3.92a.79.79,0,0,0,.7245.7974h16.8851a.8039.8039,0,0,0,.7972-.7974v-3.92c0-2.9023-1.3763-4.2806-4.2026-4.2806h-9.9289A3.9569,3.9569,0,0,0,259.3152,590.9894Z"/><path d="M314.1789,580.7566v5.2257a.8063.8063,0,0,1-.7973.7994h-9.0589a3.4925,3.4925,0,0,0-3.4781,3.2646V617.045h-5.5081a.8045.8045,0,0,1-.7972-.7974v-35.491h5.5081a.7463.7463,0,0,1,.7972.7265V583.08a6.0739,6.0739,0,0,1,4.9281-2.3234Z"/><path d="M340.4906,562.3958v5.2257a.8046.8046,0,0,1-.7973.7974h-6.5226a4.2414,4.2414,0,0,0-4.2754,4.2826v9.3625a2.1922,2.1922,0,0,1,1.9563-1.0889h7.1026v5.2257a.7448.7448,0,0,1-.7972.7246h-8.2617v29.3222a.8045.8045,0,0,1-.7972.7974H322.59V572.9909a10.5547,10.5547,0,0,1,10.5807-10.5951Z"/><path d="M345.7834,606.9579V590.8457a10.6008,10.6008,0,0,1,10.5807-10.5971H365.93a10.6631,10.6631,0,0,1,10.6525,10.5971v16.1122A10.6158,10.6158,0,0,1,365.93,617.553h-9.5661A10.554,10.554,0,0,1,345.7834,606.9579Zm6.3043-16.4036v16.693a4.3043,4.3043,0,0,0,4.2764,4.3554H365.93a4.3657,4.3657,0,0,0,4.3481-4.3554v-16.693a4.3493,4.3493,0,0,0-4.3481-4.2806h-9.5661A4.2865,4.2865,0,0,0,352.0877,590.5543Z"/><path d="M406.807,580.7566v5.2257a.8063.8063,0,0,1-.7973.7994h-9.0589a3.4925,3.4925,0,0,0-3.4781,3.2646V617.045h-5.5081a.8046.8046,0,0,1-.7973-.7974v-35.491h5.5081a.7464.7464,0,0,1,.7973.7265V583.08a6.0737,6.0737,0,0,1,4.9281-2.3234Z"/><path d="M459.1324,591.3537V617.045h-5.5071a.8037.8037,0,0,1-.7963-.7974V590.9894a4.2871,4.2871,0,0,0-4.2763-4.2806H439.131a2.4571,2.4571,0,0,1,1.3046,2.032V617.045h-5.5072a.8038.8038,0,0,1-.7972-.7974V587.5063a.8046.8046,0,0,0-.7973-.7975H422.3905a.7709.7709,0,0,0-.7246.6537v28.8851a.8038.8038,0,0,1-.7972.7974h-5.5071V585.4743a4.704,4.704,0,0,1,4.71-4.7177h28.4813A10.5549,10.5549,0,0,1,459.1324,591.3537Z"/><path d="M498.0558,590.9185v23.8051a2.2905,2.2905,0,0,1-2.3181,2.3214h-16.96A10.5548,10.5548,0,0,1,468.1963,606.45v-2.25a10.5553,10.5553,0,0,1,10.5816-10.5971h12.249a.8051.8051,0,0,0,.7963-.7975v-1.8154a4.0886,4.0886,0,0,0-4.3471-4.2806H473.0526a.8054.8054,0,0,1-.7963-.7994v-5.1528h15.22C493.345,580.7566,498.0558,584.3126,498.0558,590.9185Zm-19.2779,19.9577h12.32a.7451.7451,0,0,0,.7255-.7994V598.5385a2.3276,2.3276,0,0,1-1.8855,1.0889h-11.16a4.2394,4.2394,0,0,0-4.2743,4.2805v2.6857A4.24,4.24,0,0,0,478.7779,610.8762Z"/><path d="M539.2953,591.3537V617.045h-5.5091a.8037.8037,0,0,1-.7963-.7974V590.9894a4.2859,4.2859,0,0,0-4.2763-4.2806h-13.116a.8054.8054,0,0,0-.7983.7975v28.7413a.8037.8037,0,0,1-.7963.7974h-5.5071V585.4743a4.7032,4.7032,0,0,1,4.7089-4.7177h15.5088A10.5554,10.5554,0,0,1,539.2953,591.3537Z"/><path d="M555.7478,591.1351v15.6042a4.2428,4.2428,0,0,0,4.2763,4.2826h12.827a.8054.8054,0,0,1,.7983.7974v5.2257H560.0241a10.6,10.6,0,0,1-10.58-10.5951V591.4265a10.6,10.6,0,0,1,10.58-10.5971h13.6253v5.2257a.7473.7473,0,0,1-.7983.7266h-12.827A4.3031,4.3031,0,0,0,555.7478,591.1351Z"/><path d="M583.655,606.45V591.0623c0-6.75,4.7088-10.3057,10.58-10.3057h9.7107c5.8708,0,10.5817,3.556,10.5817,10.3057v8.3465c0,1.2346-.1455,2.2506-1.8856,2.2506H592.7856a3.4662,3.4662,0,0,1-2.8272-1.38v6.46a4.2428,4.2428,0,0,0,4.2763,4.2826H612.207a.8054.8054,0,0,1,.7983.7974v5.2257H594.2347A10.5532,10.5532,0,0,1,583.655,606.45Zm6.3034-15.46v3.92a.7912.7912,0,0,0,.7255.7974h16.885a.8054.8054,0,0,0,.7983-.7974v-3.92c0-2.9023-1.3783-4.2806-4.2036-4.2806h-9.9289A3.9581,3.9581,0,0,0,589.9584,590.9894Z"/><path d="M685.2643,591.3537V617.045h-5.5091a.8037.8037,0,0,1-.7963-.7974V590.9894a4.2858,4.2858,0,0,0-4.2763-4.2806h-13.116a.8055.8055,0,0,0-.7983.7975v28.7413a.8036.8036,0,0,1-.7962.7974h-5.5072V585.4743a4.7033,4.7033,0,0,1,4.7089-4.7177h15.5088A10.5553,10.5553,0,0,1,685.2643,591.3537Z"/><path d="M695.85,606.9579V590.8457a10.6013,10.6013,0,0,1,10.58-10.5971h9.5672a10.6638,10.6638,0,0,1,10.6525,10.5971v16.1122a10.6165,10.6165,0,0,1-10.6525,10.5951H706.43A10.5544,10.5544,0,0,1,695.85,606.9579Zm6.3054-16.4036v16.693a4.3031,4.3031,0,0,0,4.2743,4.3554h9.5672a4.3649,4.3649,0,0,0,4.3471-4.3554v-16.693a4.3484,4.3484,0,0,0-4.3471-4.2806H706.43A4.2853,4.2853,0,0,0,702.1553,590.5543Z"/><path d="M747.0891,580.7566h8.4071a6.1163,6.1163,0,0,1,5,2.3234V563.4118a.807.807,0,0,1,.7982-.7994h5.5072v52.1112a2.2906,2.2906,0,0,1-2.3181,2.3214H747.2346a10.5544,10.5544,0,0,1-10.58-10.5951V591.3537A10.4324,10.4324,0,0,1,747.0891,580.7566Zm.1455,30.2653H759.7a.7455.7455,0,0,0,.7963-.7266V590.4814a4.0176,4.0176,0,0,0-3.4781-3.7h-9.7834a4.2411,4.2411,0,0,0-4.2763,4.2806v15.677A4.2428,4.2428,0,0,0,747.2346,611.0219Z"/><path d="M777.389,606.45V591.0623c0-6.75,4.7089-10.3057,10.58-10.3057h9.7106c5.8709,0,10.5817,3.556,10.5817,10.3057v8.3465c0,1.2346-.1455,2.2506-1.8855,2.2506H786.52a3.4665,3.4665,0,0,1-2.8273-1.38v6.46a4.2428,4.2428,0,0,0,4.2764,4.2826h17.9723a.8054.8054,0,0,1,.7982.7974v5.2257h-18.77A10.5533,10.5533,0,0,1,777.389,606.45Zm6.3034-15.46v3.92a.7912.7912,0,0,0,.7255.7974H801.303a.8054.8054,0,0,0,.7983-.7974v-3.92c0-2.9023-1.3783-4.2806-4.2036-4.2806h-9.9289A3.9582,3.9582,0,0,0,783.6924,590.9894Z"/></svg>